<?xml version="1.0" encoding="UTF-8" standalone="no"?>
<!-- Creator: CorelDRAW -->

<svg
   xml:space="preserve"
   width="1257px"
   height="1449px"
   version="1.1"
   style="shape-rendering:geometricPrecision; text-rendering:geometricPrecision; image-rendering:optimizeQuality; fill-rule:evenodd; clip-rule:evenodd"
   viewBox="0 0 908.31 1046.79"
   id="svg10"
   sodipodi:docname="icon.svg"
   inkscape:version="1.4-rc1 (61ec3f2, 2024-09-26)"
   xmlns:inkscape="http://www.inkscape.org/namespaces/inkscape"
   xmlns:sodipodi="http://sodipodi.sourceforge.net/DTD/sodipodi-0.dtd"
   xmlns="http://www.w3.org/2000/svg"
   xmlns:svg="http://www.w3.org/2000/svg"><sodipodi:namedview
   id="namedview10"
   pagecolor="#ffffff"
   bordercolor="#000000"
   borderopacity="0.25"
   inkscape:showpageshadow="2"
   inkscape:pageopacity="0.0"
   inkscape:pagecheckerboard="0"
   inkscape:deskcolor="#d1d1d1"
   inkscape:zoom="1.252588"
   inkscape:cx="628.29917"
   inkscape:cy="1034.2587"
   inkscape:window-width="3818"
   inkscape:window-height="1166"
   inkscape:window-x="2993"
   inkscape:window-y="388"
   inkscape:window-maximized="0"
   inkscape:current-layer="Layer_x0020_1" />
 <defs
   id="defs1">
  <style
   type="text/css"
   id="style1">
   <![CDATA[
    .fil0 {fill:#373435;fill-rule:nonzero}
    .fil3 {fill:#296DB4;fill-rule:nonzero}
    .fil2 {fill:#00AFEF;fill-rule:nonzero}
    .fil1 {fill:black;fill-rule:nonzero}
   ]]>
  </style>
 
   
   
   
   
   
   
   
   
   
   
  </defs>
 <g
   id="Layer_x0020_1"
   inkscape:label="Layer 1">
  <metadata
   id="CorelCorpID_0Corel-Layer" />
  <path
   class="fil0"
   d="m 677.08,550.74 c -0.15,0 -0.27,-0.08 -0.42,-0.09 h -24.25 l -1.4,50.8 50.81,1.4 1.39,-50.81 c 0,-0.77 -0.62,-1.39 -1.39,-1.39 H 677.5 c -0.14,0.01 -0.27,0.09 -0.42,0.09 z"
   id="path1"
   style="fill:#000000" /><path
   class="fil1"
   d="m 231.26,550.74 c -0.15,0 -0.27,-0.08 -0.42,-0.09 h -24.35 l -1.39,50.8 50.8,1.4 1.39,-50.81 c 0,-0.75 -0.64,-1.39 -1.39,-1.39 h -24.21 c -0.15,0.01 -0.28,0.09 -0.43,0.09 z"
   id="path2" /><path
   class="fil1"
   d="m 465.02,455.52 v 63.21 c 15.48,4.7 26.85,18.95 26.85,35.95 0,20.81 -16.92,37.72 -37.73,37.72 -20.8,0 -37.72,-16.91 -37.72,-37.72 0,-16.98 11.34,-31.21 26.79,-35.93 v -63.28 l -75.03,89.07 c -4.97,6.56 -6.34,16.08 -3.22,24.45 l 35.02,93.2 h 108.24 l 35.16,-93.2 c 3.09,-8.28 1.67,-17.8 -3.71,-24.85 z"
   id="path3" /><path
   class="fil1"
   d="m 438.23,554.68 c 0,8.77 7.14,15.91 15.92,15.91 8.77,0 15.91,-7.14 15.91,-15.91 0,-8.78 -7.14,-15.93 -15.91,-15.93 -8.78,0 -15.92,7.15 -15.92,15.93 z"
   id="path4" /><path
   class="fil1"
   d="M 517.18,684.02 H 391.11 c -3.61,0 -6.55,2.93 -6.55,6.53 v 55.27 c 0,3.62 2.94,6.56 6.55,6.56 h 126.07 c 3.61,0 6.55,-2.94 6.55,-6.56 v -55.27 c 0,-3.6 -2.94,-6.54 -6.55,-6.54 z"
   id="path5" /><path
   class="fil0"
   d="m 660.33,316.83 c 0,0.07 -0.03,0.12 -0.03,0.18 0.11,12.23 10.06,22.16 22.31,22.16 12.36,0 22.41,-10.03 22.41,-22.36 0,-12.35 -10.05,-22.4 -22.41,-22.4 -12.26,0 -22.22,9.96 -22.32,22.23 0,0.07 0.04,0.12 0.04,0.19 z"
   id="path6"
   style="fill:#000000" /><path
   class="fil0"
   d="m 248.01,316.83 c 0,-0.04 0.03,-0.07 0.03,-0.11 -0.06,-12.31 -10.07,-22.31 -22.4,-22.31 -12.32,0 -22.35,10.05 -22.35,22.4 0,12.33 10.03,22.37 22.35,22.37 12.32,0 22.32,-9.98 22.39,-22.25 0,-0.03 -0.02,-0.06 -0.02,-0.1 z"
   id="path7"
   style="fill:#000000" /><path
   class="fil2"
   d="M 686.31,98.14 H 221.99 C 197.61,153.02 153.04,197.59 98.13,221.98 V 428.3 c 0,195.83 107.22,374.57 279.83,466.51 h 0.02 l 76.1,40.72 76.35,-40.76 C 702.98,802.77 810.17,624.02 810.17,428.3 V 221.98 C 755.26,197.59 710.69,153.02 686.31,98.14 Z M 563.8,576.61 c 0,0.03 0,0.03 -0.01,0.05 l -33.61,89.11 c 9,4.75 15.36,13.91 15.36,24.78 v 55.27 c 0,15.63 -12.72,28.37 -28.36,28.37 H 391.11 c -15.64,0 -28.36,-12.74 -28.36,-28.37 v -55.27 c 0,-10.84 6.33,-19.97 15.29,-24.74 l -33.5,-89.17 c -5.8,-15.57 -3.33,-32.65 6.62,-45.73 l 94.59,-112.32 c 0.06,-0.06 0.14,-0.08 0.2,-0.14 2,-2.32 4.86,-3.86 8.16,-3.86 3.33,0 6.21,1.57 8.21,3.92 0.03,0.03 0.08,0.05 0.11,0.08 l 94.25,111.89 c 10.36,13.57 12.91,30.65 7.12,46.13 z m 123.68,-47.76 h 14.34 c 12.79,0 23.2,10.41 23.2,23.19 v 49.41 c 0,12.8 -10.41,23.21 -23.2,23.21 h -49.41 c -12.79,0 -23.2,-10.41 -23.2,-23.21 v -49.41 c 0,-12.78 10.41,-23.19 23.2,-23.19 h 13.26 C 660.6,432.65 589.85,350.7 495.5,331.93 c -6.21,16.9 -22.34,29.05 -41.39,29.05 -19.02,0 -35.11,-12.14 -41.32,-29.04 -94.32,18.82 -165.05,100.76 -170.12,196.91 h 13.23 c 12.79,0 23.19,10.41 23.19,23.19 v 49.41 c 0,12.8 -10.4,23.21 -23.19,23.21 h -49.41 c -12.8,0 -23.2,-10.41 -23.2,-23.21 v -49.41 c 0,-12.78 10.4,-23.19 23.2,-23.19 h 14.38 c 4.19,-87.73 57.89,-164.95 135.09,-201.11 h -87.63 c -4.9,19.06 -22.1,33.24 -42.69,33.24 -24.35,0 -44.16,-19.8 -44.16,-44.17 0,-24.38 19.81,-44.21 44.16,-44.21 20.61,0 37.82,14.22 42.71,33.33 h 143.12 c 4.87,-19.11 22.06,-33.33 42.64,-33.33 20.61,0 37.83,14.22 42.71,33.33 h 143.14 c 4.88,-19.11 22.07,-33.33 42.65,-33.33 24.38,0 44.22,19.83 44.22,44.21 0,24.37 -19.84,44.17 -44.22,44.17 -20.56,0 -37.74,-14.18 -42.63,-33.24 h -87.59 c 77.2,36.16 130.89,113.37 135.09,201.11 z"
   id="path8" /><path
   class="fil0"
   d="m 454.11,294.41 c -12.3,0 -22.32,10.03 -22.34,22.36 0,0.02 0.01,0.04 0.01,0.07 0,0.01 0,0.02 0,0.04 0.03,12.3 10.04,22.3 22.33,22.3 12.37,0 22.42,-10.03 22.42,-22.37 0,-12.35 -10.05,-22.4 -22.42,-22.4 z"
   id="path9"
   style="fill:#000000" /><path
   class="fil3"
   d="M 763.72,0 H 144.59 C 144.59,79.82 79.82,144.59 0,144.59 v 283.72 c 0,231.6 127.36,444.23 331.7,553.05 l 122.34,65.43 122.57,-65.43 C 780.73,872.54 908.31,659.91 908.31,428.31 V 144.59 C 828.49,144.59 763.72,79.82 763.72,0 Z m 68.25,428.3 c 0,203.82 -111.61,389.93 -291.27,485.72 l -86.62,46.22 -86.37,-46.18 C 187.98,818.34 76.33,632.2 76.33,428.3 V 207.45 l 6.78,-2.76 C 138.01,182.3 182.32,138 204.68,83.12 l 2.77,-6.79 h 493.4 l 2.77,6.79 c 22.36,54.88 66.67,99.18 121.57,121.56 l 6.78,2.77 z"
   id="path10" />
 </g>
</svg>
